<svg xmlns="http://www.w3.org/2000/svg" viewBox="0 0 22 30" fill="none">
<path d="M10.79 7.72365C10.79 7.85696 10.79 7.92361 10.7947 7.99122C10.8234 8.40818 11.0001 8.83473 11.2746 9.14987C11.3191 9.20098 11.3596 9.24141 11.4404 9.32227C11.8007 9.68251 12.2925 9.87793 12.802 9.87793H18.3224C19.4258 9.87793 19.9775 9.87793 20.3989 10.0927C20.7696 10.2815 21.071 10.5829 21.2599 10.9536C21.4746 11.3751 21.4746 11.9267 21.4746 13.0301V16.3635C21.4746 17.4668 21.4746 18.0185 21.2599 18.4399C21.071 18.8106 20.7696 19.112 20.3989 19.3009C19.9775 19.5156 19.4258 19.5156 18.3224 19.5156H12.7888C12.2847 19.5156 11.7979 19.709 11.4414 20.0654C11.3597 20.1471 11.3189 20.1879 11.2742 20.2393C11.0001 20.5542 10.8236 20.9803 10.7947 21.3968C10.79 21.4647 10.79 21.5314 10.79 21.6647V26.2599C10.79 27.3633 10.79 27.915 10.5753 28.3364C10.3864 28.7071 10.085 29.0085 9.71434 29.1974C9.29291 29.4121 8.74123 29.4121 7.63787 29.4121H3.15217C2.04881 29.4121 1.49713 29.4121 1.0757 29.1974C0.704998 29.0085 0.40361 28.7071 0.214729 28.3364C0 27.915 0 27.3633 0 26.2599V22.6981C0 21.5947 0 21.043 0.214729 20.6216C0.40361 20.2509 0.704998 19.9495 1.0757 19.7606C1.49713 19.5459 2.04881 19.5459 3.15217 19.5459H8.70118C8.72901 19.5459 8.74293 19.5459 8.75893 19.5456C9.24848 19.5377 9.74539 19.3319 10.0972 18.9913C10.1087 18.9802 10.1138 18.9751 10.124 18.9648C10.2195 18.8694 10.2672 18.8217 10.317 18.7635C10.5817 18.454 10.7525 18.0418 10.7841 17.6357C10.79 17.5594 10.79 17.4835 10.79 17.3319V12.0565C10.79 11.9048 10.79 11.829 10.784 11.7522C10.7523 11.3467 10.5818 10.9349 10.3174 10.6257C10.2674 10.5672 10.2193 10.5191 10.123 10.4229C9.76256 10.0624 9.27061 9.86621 8.76081 9.86621H3.15217C2.04881 9.86621 1.49713 9.86621 1.0757 9.65148C0.704998 9.4626 0.40361 9.16121 0.214729 8.79051C0 8.36908 0 7.8174 0 6.71404V3.15217C0 2.04881 0 1.49713 0.214729 1.0757C0.40361 0.704998 0.704998 0.40361 1.0757 0.214729C1.49713 0 2.04881 0 3.15217 0H7.63787C8.74123 0 9.29291 0 9.71434 0.214729C10.085 0.40361 10.3864 0.704998 10.5753 1.0757C10.79 1.49713 10.79 2.04881 10.79 3.15217V7.72365Z" fill="#FF3C00"/>
</svg>
